<?xml version="1.0" encoding="utf-8"?>
<!-- Generator: Adobe Illustrator 23.0.3, SVG Export Plug-In . SVG Version: 6.00 Build 0)  -->
<svg version="1.1" id="Layer_1" xmlns="http://www.w3.org/2000/svg" xmlns:xlink="http://www.w3.org/1999/xlink" x="0px" y="0px"
	 viewBox="0 0 960 560" style="enable-background:new 0 0 960 560;" xml:space="preserve">
<style type="text/css">
	.st0{fill:#EA4C89;stroke:#EA4C89;stroke-width:40;stroke-miterlimit:10;}
</style>
<path class="st0" d="M501.6,132.8c-57-48.1-142.2-40.9-190.3,16.1S270.4,291,327.4,339.1c53.3,45,132.1,42,181.8-7l165.6,139.7
	c5.3,4.4,13.1,3.8,17.5-1.5s3.8-13.1-1.5-17.5l0,0L525.3,313.1C565.1,255.9,554.9,177.7,501.6,132.8z M490.9,299.7
	c-36,42.7-99.9,48.1-142.5,12.1s-48.1-99.9-12.1-142.6s99.9-48.1,142.6-12.1l0,0C521.5,193.2,526.9,257,490.9,299.7z"/>
</svg>
